<svg width="256" height="220" viewBox="0 0 256 220" fill="none" xmlns="http://www.w3.org/2000/svg">
<path d="M34.6875 219.668H0V0.917969H34.6875V219.668Z" fill="white"/>
<path d="M143.911 219.668H62.0361V0.917969H143.911C175.786 0.917969 202.244 11.4388 223.286 32.4805C244.536 53.3138 255.161 79.2513 255.161 110.293C255.161 141.335 244.536 167.376 223.286 188.418C202.244 209.251 175.786 219.668 143.911 219.668ZM96.7236 31.8555V188.73H141.411C164.119 188.73 182.765 181.335 197.349 166.543C212.14 151.543 219.536 132.793 219.536 110.293C219.536 87.5846 212.14 68.8346 197.349 54.043C182.765 39.2513 164.119 31.8555 141.411 31.8555H96.7236Z" fill="white"/>
</svg>
